<svg width="210mm" height="210mm" viewBox="0 0 210 210" xmlns="http://www.w3.org/2000/svg">
         <path
            d="M46.195 87.43c-6.23 0-11.28 4.842-11.28 10.815 0 31.98 24.795 58.497 57.064 64.213v26.812h.047a13.02 12.747 0 00-.046.622A13.02 12.747 0 00105 202.64a13.02 12.747 0 0013.02-12.747 13.02 12.747 0 00-.016-.622h.016v-26.812c32.27-5.716 57.066-32.232 57.065-64.213 0-5.973-5.05-10.815-11.28-10.815-6.23 0-11.28 4.842-11.28 10.815 0 24.09-20.947 43.741-47.525 43.741s-47.525-19.65-47.525-43.741c0-5.973-5.05-10.815-11.28-10.815z"
            color="#000" fill="#ff0000"  />
        <ellipse cx="92.736" cy="205.75" rx=".757" ry=".076" />
  
    <path
        d="M105 0C87.513 0 72.645 10.775 66.616 26.07h52.208c2.77 0 5 1.973 5 4.425 0 2.451-2.23 4.425-5 4.425H64.218a41.91 41.91 0 00-.482 6.344v.68h55.088c2.77 0 5 1.974 5 4.426 0 2.451-2.23 4.425-5 4.425H63.736v7.025h55.088c2.77 0 5 1.973 5 4.425 0 2.451-2.23 4.425-5 4.425H63.736v29.24c0 22.86 18.404 41.264 41.264 41.264 22.86 0 41.264-18.404 41.264-41.264V41.264C146.264 18.404 127.86 0 105 0z"
        fill="#ff0000"/>
</svg>